<svg width="30" height="24" viewBox="0 0 30 24" fill="none" xmlns="http://www.w3.org/2000/svg">
<g clip-path="url(#clip0_16_251)">
<path d="M14.625 18.75H6.75C6.12984 18.75 5.625 18.2447 5.625 17.625V9.75004H9.33609C9.80409 9.75004 10.2122 9.48196 10.4002 9.04973C10.5899 8.61468 10.5078 8.12676 10.1848 7.77988L6.09844 3.37223C5.66044 2.90066 4.83843 2.90066 4.40062 3.37223L0.31495 7.7391C-0.00806522 8.08626 -0.0900965 8.57395 0.0996067 9.00895C0.287857 9.48285 0.695622 9.75004 1.1639 9.75004H4.875V17.625C4.875 18.661 5.71406 19.5 6.75 19.5H14.625C14.8312 19.5 15 19.3313 15 19.125C15 18.9188 14.8312 18.75 14.625 18.75ZM1.1639 9.00004C0.801982 9.00004 0.615466 8.5582 0.864325 8.28941L4.95 3.88176C5.13412 3.68399 5.40665 3.72876 5.54906 3.88176L9.63515 8.28941C9.88593 8.55941 9.69843 9.00004 9.3375 9.00004H1.1639ZM28.4016 14.9485C28.2141 14.5172 27.8062 14.25 27.3375 14.25H23.625V6.37504C23.625 5.3391 22.7859 4.50004 21.75 4.50004H13.875C13.6687 4.50004 13.5 4.66832 13.5 4.87504C13.5 5.08176 13.6687 5.25004 13.875 5.25004H21.75C22.3702 5.25004 22.875 5.75535 22.875 6.37504V14.25H19.1639C18.6959 14.25 18.2878 14.5181 18.0998 14.9504C17.9101 15.3854 17.9922 15.8733 18.3152 16.2202L22.4013 20.6279C22.6219 20.8641 22.9312 21 23.25 21C23.5687 21 23.88 20.8638 24.0989 20.6279L28.185 16.2203C28.5094 15.8719 28.5891 15.3844 28.4016 14.9485ZM27.6375 15.7125L23.5514 20.1202C23.3932 20.2901 23.1105 20.2901 22.9523 20.1202L18.8662 15.7125C18.6141 15.4407 18.8016 15 19.1625 15H27.3328C27.6984 15 27.8859 15.4407 27.6375 15.7125Z" fill="black"/>
</g>
<defs>
<clipPath id="clip0_16_251">
<rect width="30" height="24" fill="white"/>
</clipPath>
</defs>
</svg>
